<!-- icon666.com - MILLIONS OF FREE VECTOR ICONS -->
<svg viewBox="0 0 469 469.33333" xmlns="http://www.w3.org/2000/svg">
    <path
        d="m264.832031 469.332031h-60.132812l-21.597657-64.132812-32.269531-13.332031-60.664062 30.132812-42.535157-42.535156 30.132813-60.796875-13.332031-32.269531-64.265625-21.730469v-60.132813l64.132812-21.601562 13.332031-32.265625-30-60.667969 42.535157-42.535156 60.664062 30.136718 32.269531-13.335937 21.730469-64.265625h60.132813l21.601562 64.132812 32.265625 13.332032 60.667969-30.132813 42.535156 42.535157-30.136718 60.800781 13.335937 32.265625 64.132813 21.601562v60.132813l-64.132813 21.597656-13.335937 32.269531 30.136718 60.664063-42.535156 42.535156-60.667969-30-32.265625 13.332031zm-44.796875-21.332031h29.464844l19.867188-58.800781 50.265624-20.800781 55.601563 27.601562 20.800781-20.800781-27.601562-55.597657 20.800781-50.269531 58.800781-19.867187v-29.464844l-58.800781-19.867188-20.800781-50.265624 27.734375-55.601563-20.933594-20.933594-55.601563 27.601563-50.265624-20.800782-19.734376-58.800781h-29.464843l-19.867188 58.800781-50.265625 20.800782-55.601562-27.601563-20.933594 20.933594 27.601562 55.601563-20.800781 50.265624-58.800781 19.734376v29.464843l58.800781 19.867188 20.800781 50.265625-27.601562 55.601562 20.933594 20.933594 55.601562-27.601562 50.265625 20.800781zm0 0"></path>
    <path
        d="m234.832031 309.332031c-41.199219 0-74.664062-33.464843-74.664062-74.664062 0-41.203125 33.464843-74.667969 74.664062-74.667969 41.203125 0 74.667969 33.464844 74.667969 74.667969 0 41.199219-33.464844 74.664062-74.667969 74.664062zm0-128c-29.464843 0-53.332031 23.867188-53.332031 53.335938 0 29.464843 23.867188 53.332031 53.332031 53.332031 29.46875 0 53.335938-23.867188 53.335938-53.332031 0-29.46875-23.867188-53.335938-53.335938-53.335938zm0 0"></path>
</svg>